<svg xmlns="http://www.w3.org/2000/svg" xmlns:xlink="http://www.w3.org/1999/xlink">   
    <symbol>
        <!-- User -->
        <g id="hpa-profile">
            <path d="M12 15C15.3137 15 18 12.3137 18 9C18 5.68629 15.3137 3 12 3C8.68629 3 6 5.68629 6 9C6 12.3137 8.68629 15 12 15Z" stroke="black" stroke-linecap="round" stroke-linejoin="round"/>
            <path d="M2.90527 20.2491C3.82736 18.6531 5.15322 17.3278 6.74966 16.4064C8.3461 15.485 10.1569 15 12.0002 15C13.8434 15 15.6542 15.4851 17.2506 16.4065C18.847 17.3279 20.1729 18.6533 21.0949 20.2493" stroke="black" stroke-linecap="round" stroke-linejoin="round"/>
        </g>        

        <!-- Carrinho -->
        <g id="hpa-cart">
            <path d="M104.625 23.25H19.375C17.2349 23.25 15.5 24.9849 15.5 27.125V96.875C15.5 99.0151 17.2349 100.75 19.375 100.75H104.625C106.765 100.75 108.5 99.0151 108.5 96.875V27.125C108.5 24.9849 106.765 23.25 104.625 23.25Z" stroke="black" stroke-width="2" stroke-linecap="round" stroke-linejoin="round" width="20px" height="20px" />
            <path d="M81.375 42.625C81.375 47.7636 79.3337 52.6917 75.7002 56.3252C72.0667 59.9587 67.1386 62 62 62C56.8614 62 51.9333 59.9587 48.2998 56.3252C44.6663 52.6917 42.625 47.7636 42.625 42.625" stroke="black" stroke-width="2" stroke-linecap="round" stroke-linejoin="round"/>
        </g>

        <!-- Search -->
        <g id="hpa-search">
            <path d="M10.8749 18.75C15.2241 18.75 18.7499 15.2242 18.7499 10.875C18.7499 6.52576 15.2241 3 10.8749 3C6.52564 3 2.99988 6.52576 2.99988 10.875C2.99988 15.2242 6.52564 18.75 10.8749 18.75Z" stroke="black" stroke-linecap="round" stroke-linejoin="round"/>
            <path d="M16.4431 16.4438L20.9994 21.0001" stroke="black" stroke-linecap="round" stroke-linejoin="round"/>
        </g>

        <g id="hpa-delete">
            <path xmlns="http://www.w3.org/2000/svg" fill-rule="evenodd" clip-rule="evenodd" d="M9.45455 2.36364H13V3.54545H11.8182V14.1818L10.6364 15.3636H2.36364L1.18182 14.1818V3.54545H0V2.36364H3.54545V1.18182C3.54545 0.868381 3.66997 0.56778 3.8916 0.346146C4.11323 0.124513 4.41384 0 4.72727 0H8.27273C8.58616 0 8.88676 0.124513 9.1084 0.346146C9.33003 0.56778 9.45455 0.868381 9.45455 1.18182V2.36364ZM8.27273 1.18182H4.72727V2.36364H8.27273V1.18182ZM2.36364 14.1818H10.6364V3.54545H2.36364V14.1818ZM4.72727 4.72727H3.54545V13H4.72727V4.72727ZM5.90909 4.72727H7.09091V13H5.90909V4.72727ZM8.27273 4.72727H9.45455V13H8.27273V4.72727Z" fill="#466d5b"/>
        </g>
    </symbol>
</svg>
