<svg width="10" height="7" viewBox="0 0 10 7" fill="none" xmlns="http://www.w3.org/2000/svg">
<path d="M9.855 0.900527C9.855 0.570527 9.585 0.308027 9.2625 0.308027C9.0675 0.308027 8.9025 0.398027 8.7825 0.540527L5.46 4.64303C5.415 4.70303 5.355 4.77803 5.25 4.77803C5.145 4.77803 5.085 4.70303 5.04 4.64303L1.7175 0.540527C1.5975 0.398027 1.4325 0.308027 1.2375 0.308027C0.9075 0.308027 0.645 0.570527 0.645 0.900527C0.645 1.04303 0.6975 1.17803 0.8025 1.29803L4.125 5.40053C4.5075 5.85803 4.83 6.07553 5.25 6.07553C5.67 6.07553 5.9925 5.85803 6.375 5.40053L9.6975 1.29803C9.8025 1.17803 9.855 1.04303 9.855 0.900527Z" fill="#848D9C"/>
</svg>
