<svg width="10" height="7" viewBox="0 0 10 7" fill="none" xmlns="http://www.w3.org/2000/svg">
<path d="M0.145 6.09947C0.145 6.42947 0.414999 6.69197 0.7375 6.69197C0.932499 6.69197 1.0975 6.60197 1.2175 6.45947L4.54 2.35697C4.585 2.29697 4.645 2.22197 4.75 2.22197C4.855 2.22197 4.915 2.29697 4.96 2.35697L8.2825 6.45947C8.4025 6.60197 8.5675 6.69197 8.7625 6.69197C9.0925 6.69197 9.355 6.42947 9.355 6.09947C9.355 5.95697 9.3025 5.82197 9.1975 5.70197L5.875 1.59947C5.4925 1.14197 5.17 0.924472 4.75 0.924472C4.33 0.924472 4.0075 1.14197 3.625 1.59947L0.302499 5.70197C0.1975 5.82197 0.145 5.95697 0.145 6.09947Z" fill="black"/>
</svg>
