<svg width="153" height="24" viewBox="0 0 153 24" fill="none" xmlns="http://www.w3.org/2000/svg">
<path d="M20.6743 11.8092C20.6743 19.2687 15.6415 23.6183 7.67473 23.6183H0V0.507568H8.22455C15.6757 0.507568 20.6743 4.47761 20.6743 11.8092ZM17.0628 11.9686C17.0628 5.42971 13.4832 1.01505 7.93481 1.01505H3.28982V22.8256C4.12939 23.0165 5.64425 23.1108 8.22455 23.1108C13.8369 23.113 17.0628 19.0801 17.0628 11.9686Z" fill="black"/>
<path d="M43.678 0.507568H40.3881V23.6183H43.678V0.507568Z" fill="black"/>
<path d="M79.6446 6.85785C79.6446 11.1759 76.1609 13.9693 70.5486 13.9693C69.5493 13.9693 68.452 13.875 67.7424 13.7785V23.6205H64.4503V0.507568H70.5463C76.5784 0.507568 79.6446 2.79349 79.6446 6.85785ZM76.1609 7.23734C76.1609 3.58615 74.2901 1.01505 70.0649 1.01505H67.7424V13.2373C68.3242 13.3653 69.0657 13.4596 70.001 13.4596C74.0962 13.4619 76.1609 11.1108 76.1609 7.23734Z" fill="black"/>
<path d="M98.7745 15.6827V0.507568H102.064V15.6198C102.064 20.5711 104.323 23.0479 108.482 23.0479C112.481 23.0479 114.934 20.6677 114.934 15.777V10.6033C114.934 6.1595 114.74 3.04723 114.288 0.507568H116.223C115.803 3.04723 115.577 6.15725 115.577 10.6033V15.6198C115.577 21.018 112.965 24 107.289 24C101.613 24 98.7745 21.0157 98.7745 15.6827Z" fill="black"/>
<path d="M146.322 16.0329H137.162C135.743 19.7469 135.355 21.7477 135.259 23.6204H133.032C134.581 20.4453 135.807 17.4925 137.483 13.4932L143.096 0H143.226L152.999 23.6204H149.42L146.322 16.0329ZM146.096 15.4603L141.741 4.85702L138.095 13.7155L137.385 15.4603H146.096Z" fill="black"/>
</svg>
