<svg width="25" height="24" viewBox="0 0 25 24" fill="none" xmlns="http://www.w3.org/2000/svg">
<path d="M6.40895 20.6268L6.80533 20.8215C8.45716 21.7944 10.307 22.2485 12.157 22.2485C17.9711 22.2485 22.7281 17.5782 22.7281 11.8701C22.7281 9.14579 21.6048 6.48631 19.6228 4.54034C17.6407 2.59436 14.9979 1.4917 12.157 1.4917C6.34293 1.4917 1.58588 6.16197 1.65199 11.935C1.65199 13.8809 2.24661 15.762 3.23761 17.3836L3.50186 17.7728L2.44485 21.5999L6.40895 20.6268Z" fill="#466D5B"/>
<path d="M20.7457 3.5027C18.4994 1.23247 15.3941 0 12.2228 0C5.48381 0 0.0661111 5.38376 0.132127 11.9351C0.132127 14.0108 0.726748 16.0217 1.71785 17.8378L0 24L6.4087 22.3784C8.19256 23.3514 10.1746 23.8055 12.1568 23.8055C18.8297 23.8055 24.2474 18.4216 24.2474 11.8704C24.2474 8.69193 22.9921 5.70811 20.7458 3.5027H20.7457ZM12.2228 21.7947C10.4389 21.7947 8.65506 21.3407 7.13545 20.4326L6.73907 20.238L2.90709 21.2109L3.89809 17.5137L3.63384 17.1244C0.726748 12.5191 2.11423 6.42161 6.8712 3.56751C11.6282 0.713502 17.7726 2.07569 20.6797 6.74595C23.5867 11.4162 22.1992 17.4487 17.4423 20.3028C15.9226 21.2757 14.0728 21.7946 12.2228 21.7946V21.7947ZM18.0369 14.5948L17.3101 14.2704C17.3101 14.2704 16.2531 13.8163 15.5924 13.492C15.5263 13.492 15.4602 13.4271 15.3941 13.4271C15.1959 13.4271 15.0638 13.492 14.9316 13.5569C14.9316 13.5569 14.8656 13.6217 13.9406 14.6596C13.8745 14.7893 13.7424 14.8542 13.6103 14.8542H13.5442C13.4781 14.8542 13.346 14.7893 13.2799 14.7245L12.9495 14.5948C12.2228 14.2704 11.5621 13.8812 11.0335 13.3623C10.9014 13.2326 10.7032 13.1028 10.571 12.9731C10.1086 12.5191 9.64606 12.0001 9.31579 11.4163L9.24968 11.2866C9.18366 11.2217 9.18366 11.1569 9.11755 11.0272C9.11755 10.8974 9.11755 10.7677 9.18366 10.7028C9.18366 10.7028 9.44792 10.3785 9.64606 10.1839C9.77828 10.0541 9.8443 9.85959 9.97643 9.72987C10.1086 9.53524 10.1747 9.2758 10.1086 9.08118C10.0425 8.75683 9.24968 7.00549 9.05154 6.61633C8.91931 6.4217 8.78728 6.35689 8.58904 6.29198H7.86229C7.73007 6.29198 7.59804 6.35689 7.46582 6.35689L7.39971 6.4217C7.26758 6.48661 7.13545 6.61633 7.00332 6.68114C6.8712 6.81095 6.80508 6.94058 6.67296 7.07039C6.21046 7.65418 5.94621 8.36768 5.94621 9.08118C5.94621 9.60006 6.07834 10.119 6.27657 10.5731L6.34269 10.7677C6.93731 12.0001 7.73007 13.1028 8.78728 14.0758L9.05154 14.3352C9.24968 14.5298 9.44792 14.6596 9.58005 14.8541C10.9675 16.0218 12.5531 16.865 14.337 17.319C14.5352 17.3839 14.7995 17.3839 14.9977 17.4488H15.6584C15.9887 17.4488 16.3851 17.319 16.6495 17.1893C16.8476 17.0596 16.9798 17.0596 17.1119 16.9299L17.2441 16.8001C17.3762 16.6704 17.5084 16.6055 17.6405 16.4758C17.7726 16.3461 17.9047 16.2164 17.9708 16.0866C18.103 15.8271 18.169 15.5028 18.2351 15.1785V14.7245C18.2351 14.7245 18.169 14.6596 18.0369 14.5948V14.5948Z" fill="white"/>
</svg>
