<svg width="16" height="18" viewBox="0 0 16 18" fill="none" xmlns="http://www.w3.org/2000/svg">
<path d="M3.19995 1.09998L0.800049 4.29998V15.4C0.800049 15.8 1.00005 16.2 1.30005 16.5C1.60005 16.8 2.00002 17 2.40002 17H13.5C13.9 17 14.3 16.8 14.6 16.5C14.9 16.2 15.1 15.8 15.1 15.4V4.29998L12.7 1.09998C12.7 1.09998 3.19995 1.09998 3.19995 1.09998Z" stroke="#CA7D62" stroke-width="1.5" stroke-linecap="round" stroke-linejoin="round"/>
<path d="M0.800049 4.29993H15" stroke="#CA7D62" stroke-width="1.5" stroke-linecap="round" stroke-linejoin="round"/>
<path d="M11.1 7.40002C11.1 8.20002 10.8 9.00002 10.2 9.60002C9.59995 10.2 8.8 10.5 8 10.5C7.2 10.5 6.30005 10.2 5.80005 9.60002C5.30005 9.00002 4.90002 8.20002 4.90002 7.40002" stroke="#CA7D62" stroke-width="1.5" stroke-linecap="round" stroke-linejoin="round"/>
</svg>
