<svg width="13" height="16" viewBox="0 0 13 16" fill="none" xmlns="http://www.w3.org/2000/svg">
<path fill-rule="evenodd" clip-rule="evenodd" d="M9.45455 2.36364H13V3.54545H11.8182V14.1818L10.6364 15.3636H2.36364L1.18182 14.1818V3.54545H0V2.36364H3.54545V1.18182C3.54545 0.868381 3.66997 0.56778 3.8916 0.346146C4.11323 0.124513 4.41384 0 4.72727 0H8.27273C8.58616 0 8.88676 0.124513 9.1084 0.346146C9.33003 0.56778 9.45455 0.868381 9.45455 1.18182V2.36364ZM8.27273 1.18182H4.72727V2.36364H8.27273V1.18182ZM2.36364 14.1818H10.6364V3.54545H2.36364V14.1818ZM4.72727 4.72727H3.54545V13H4.72727V4.72727ZM5.90909 4.72727H7.09091V13H5.90909V4.72727ZM8.27273 4.72727H9.45455V13H8.27273V4.72727Z" fill="#466d5b"/>
</svg>
