<svg width="20" height="18" viewBox="0 0 20 18" fill="none" xmlns="http://www.w3.org/2000/svg">
<path d="M16.6304 4.29999L16.6303 4.30005L16.6366 4.31055L19.3417 8.78234C19.3789 8.84998 19.399 8.92579 19.4 9.00306V12C19.4 12.3713 19.2525 12.7274 18.9899 12.9899C18.7274 13.2525 18.3713 13.4 18 13.4H17.4741L17.4052 13.9214C17.3137 14.6138 16.9736 15.2494 16.4484 15.7098C15.9231 16.1702 15.2485 16.424 14.55 16.424C13.8515 16.424 13.1769 16.1702 12.6516 15.7098C12.1264 15.2494 11.7863 14.6138 11.6948 13.9214L11.6259 13.4H11.1H8H7.4227L7.40045 13.9769C7.37077 14.7461 7.03674 15.4721 6.47182 15.995C5.9069 16.518 5.15737 16.7951 4.38813 16.7654C3.61888 16.7358 2.89293 16.4017 2.36997 15.8368C1.84701 15.2719 1.56988 14.5224 1.59955 13.7531L1.61351 13.3914L1.3 13.2104C1.08738 13.0876 0.910786 12.9111 0.787923 12.6986C0.665104 12.4861 0.600298 12.2451 0.6 11.9997V2C0.6 1.6287 0.7475 1.2726 1.01005 1.01005C1.2726 0.7475 1.6287 0.6 2 0.6H12C12.1061 0.6 12.2078 0.642143 12.2828 0.717157C12.3579 0.792172 12.4 0.893914 12.4 1V3V3.6H13H15.428C15.6718 3.60175 15.9108 3.66712 16.1216 3.78965C16.3328 3.91246 16.5082 4.0884 16.6304 4.29999ZM13 4.4H12.4V5V8V8.6H13H17.23H18.2897L17.7445 7.6913L15.9445 4.6913L15.7697 4.4H15.43H13ZM3.3333 15.2461C3.67865 15.4768 4.08466 15.6 4.5 15.6C5.05696 15.6 5.5911 15.3787 5.98492 14.9849C6.37875 14.5911 6.6 14.057 6.6 13.5C6.6 13.0847 6.47684 12.6786 6.24609 12.3333C6.01534 11.988 5.68736 11.7188 5.30363 11.5599C4.91991 11.4009 4.49767 11.3593 4.09031 11.4404C3.68295 11.5214 3.30876 11.7214 3.01508 12.0151C2.72139 12.3088 2.52138 12.683 2.44035 13.0903C2.35932 13.4977 2.40091 13.9199 2.55985 14.3036C2.7188 14.6874 2.98796 15.0153 3.3333 15.2461ZM13.3333 15.2461C13.6786 15.4768 14.0847 15.6 14.5 15.6C15.057 15.6 15.5911 15.3787 15.9849 14.9849C16.3787 14.5911 16.6 14.057 16.6 13.5C16.6 13.0847 16.4768 12.6786 16.2461 12.3333C16.0153 11.988 15.6874 11.7188 15.3036 11.5599C14.9199 11.4009 14.4977 11.3593 14.0903 11.4404C13.6829 11.5214 13.3088 11.7214 13.0151 12.0151C12.7214 12.3088 12.5214 12.683 12.4404 13.0903C12.3593 13.4977 12.4009 13.9199 12.5599 14.3036C12.7188 14.6874 12.988 15.0153 13.3333 15.2461Z" stroke="#466d5b" stroke-width="1.2"/>
</svg>
